<svg xmlns="http://www.w3.org/2000/svg" viewBox="0 0 19.787 19.789">
  <defs>
    <style>
      .cls-1 {
        fill: #2f77bc;
      }
    </style>
  </defs>
  <path id="stat" class="cls-1" d="M9.894,0a9.894,9.894,0,1,0,9.894,9.894A9.889,9.889,0,0,0,9.894,0Zm0,18.242a8.348,8.348,0,1,1,8.348-8.348A8.344,8.344,0,0,1,9.894,18.242ZM16.851,7.833V10.77a.773.773,0,1,1-1.546,0V9.7l-2.8,2.8a.773.773,0,0,1-1.093,0L7.833,8.926,4.257,12.5a.773.773,0,0,1-1.093-1.093L7.286,7.286a.773.773,0,0,1,1.093,0l3.576,3.576,2.256-2.256H13.141a.773.773,0,1,1,0-1.546h2.937A.775.775,0,0,1,16.851,7.833Zm0,0"/>
</svg>
